HIERARCHY
ROOT Hips
{
  OFFSET 0 0 0
  CHANNELS 6 Xposition Yposition Zposition Zrotation Xrotation Yrotation
  JOINT Spine
  {
    OFFSET 0 10.0588 -0.358158
    CHANNELS 3 Zrotation Xrotation Yrotation
    JOINT Spine1
    {
      OFFSET 0 11.7428 0
      CHANNELS 3 Zrotation Xrotation Yrotation
      JOINT Spine2
      {
        OFFSET 0 13.4203 0
        CHANNELS 3 Zrotation Xrotation Yrotation
        JOINT Neck
        {
          OFFSET 0 15.0978 0
          CHANNELS 3 Zrotation Xrotation Yrotation
          JOINT Head
          {
            OFFSET 0 8.08556 2.68779
            CHANNELS 3 Zrotation Xrotation Yrotation
            End Site
            {
              OFFSET 0 21.4992 7.1467
            }
          }
        }
        JOINT LeftShoulder
        {
          OFFSET 5.94912 13.2477 -0.0644506
          CHANNELS 3 Zrotation Xrotation Yrotation
          JOINT LeftArm
          {
            OFFSET 0 12.4722 0
            CHANNELS 3 Zrotation Xrotation Yrotation
            JOINT LeftForeArm
            {
              OFFSET 0 23.8149 0
              CHANNELS 3 Zrotation Xrotation Yrotation
              JOINT LeftHand
              {
                OFFSET 0 24.5563 0
                CHANNELS 3 Zrotation Xrotation Yrotation
                End Site
                {
                  OFFSET -1.85578 17.3552 -0.291151
                }
              }
            }
          }
        }
        JOINT RightShoulder
        {
          OFFSET -5.94912 13.2478 -0.0672944
          CHANNELS 3 Zrotation Xrotation Yrotation
          JOINT RightArm
          {
            OFFSET 0 12.4722 1.01534e-05
            CHANNELS 3 Zrotation Xrotation Yrotation
            JOINT RightForeArm
            {
              OFFSET 0 23.8199 0
              CHANNELS 3 Zrotation Xrotation Yrotation
              JOINT RightHand
              {
                OFFSET 0 24.5599 -1.20798e-05
                CHANNELS 3 Zrotation Xrotation Yrotation
                End Site
                {
                  OFFSET 1.86614 17.4983 -0.349753
                }
              }
            }
          }
        }
      }
    }
  }
  JOINT LeftUpLeg
  {
    OFFSET 9.39209 -5.57221 -0.0932091
    CHANNELS 3 Zrotation Xrotation Yrotation
    JOINT LeftLeg
    {
      OFFSET -0.000105689 42.3184 -0.000554031
      CHANNELS 3 Zrotation Xrotation Yrotation
      JOINT LeftFoot
      {
        OFFSET 0 39.0997 0
        CHANNELS 3 Zrotation Xrotation Yrotation
        JOINT LeftToe
        {
          OFFSET 0 14.7062 0
          CHANNELS 3 Zrotation Xrotation Yrotation
          End Site
          {
            OFFSET 0 5.95384 0
          }
        }
      }
    }
  }
  JOINT RightUpLeg
  {
    OFFSET -9.3921 -5.57221 -0.0152272
    CHANNELS 3 Zrotation Xrotation Yrotation
    JOINT RightLeg
    {
      OFFSET -0.00151223 42.326 0.0073622
      CHANNELS 3 Zrotation Xrotation Yrotation
      JOINT RightFoot
      {
        OFFSET 0 39.0934 0
        CHANNELS 3 Zrotation Xrotation Yrotation
        JOINT RightToe
        {
          OFFSET 0 14.5999 0
          CHANNELS 3 Zrotation Xrotation Yrotation
          End Site
          {
            OFFSET 0 6.0364 0
          }
        }
      }
    }
  }
}
MOTION
Frames:	8
Frame Time:	0.0416667
9.83047 91.4284 149.869 -168.501 10.9822 90.6949 -7.96999 1.921 -2.41817 -2.94168 -1.25553 -1.13056 -2.92607 -1.24383 -1.1747 0.912747 -14.1755 -0.939559 -5.32123 -29.9904 -14.2153 -99.1914 20.0829 96.5634 -5.85023 -56.3244 -65.5393 61.5607 0.897951 -0.948255 88.1084 -58.336 104.314 93.0956 2.71894 -92.5867 -46.5149 -35.6159 54.0007 -53.0803 0.760447 0.894501 -92.6913 -31.6181 -108.006 -107.961 33.9326 -40.8416 -0.95871 -33.14 -9.34411 126.867 77.2865 -145.738 -0.908946 11.7251 2.37273 130.572 30.5478 31.7788 1.58686 -52.0842 7.78269 -157.068 71.4376 156.237 1.14754 8.65699 -3.02325 
9.92131 91.2474 150.673 -169.45 3.32267 86.2352 -2.78277 1.25194 -1.49694 -1.74773 -0.860041 -0.826175 -1.73901 -0.859093 -0.842193 0.847849 -14.3679 -1.20504 -6.12291 -28.3848 -15.1751 -99.151 20.1004 96.5578 -11.754 -56.0941 -72.1542 61.2802 0.89423 -0.942072 85.1157 -57.0627 99.4295 92.8977 2.98007 -92.8373 -48.3365 -36.5936 54.6298 -53.7538 0.767006 0.903914 -92.5215 -31.4129 -109.945 -124.923 35.4993 -29.0582 -0.472711 -44.0903 -7.7729 116.242 70.763 -142.176 -1.0139 5.85432 2.98918 117.205 34.8406 41.0263 1.68061 -47.2415 7.61119 -156.503 71.042 160.741 1.1281 9.76366 -2.90844 
8.92332 91.6976 151.558 -169.939 -5.153 81.1995 1.87548 1.10387 -0.664853 -0.390161 -0.855127 -0.508615 -0.384923 -0.857858 -0.507655 0.870995 -14.2578 -1.41004 -6.3516 -26.6081 -15.2589 -98.9916 20.1829 96.5412 -17.2025 -54.8941 -77.6295 61.4974 0.905369 -0.956079 81.0852 -54.6917 93.2538 92.5876 4.20611 -93.1042 -48.8595 -37.9597 50.4878 -53.4124 0.763654 0.899135 -90.9856 -31.8712 -112.855 -144.825 31.861 -19.3366 -0.14499 -47.5166 -7.26345 115.388 68.0277 -139.752 -1.04283 1.83058 3.40591 105.278 36.9213 50.9955 1.34111 -35.9841 8.35414 -155.112 71.7928 161.701 1.11991 10.1935 -2.86365 
6.97724 92.7283 154.523 -170.193 -13.2369 75.0955 5.22864 1.43551 0.203922 1.22094 -1.08704 -0.0650523 1.22161 -1.08821 -0.0452514 0.904087 -13.9734 -1.56621 -5.8644 -24.7708 -14.8779 -99.1125 20.1472 96.5649 -21.9868 -55.4503 -82.3752 57.8954 0.864088 -0.889407 79.9814 -52.0414 87.1781 92.0624 6.97613 -93.3085 -47.2981 -39.0384 44.237 -53.7237 0.766581 0.903458 -89.5298 -34.5384 -116.984 -162.58 24.69 -13.0092 -0.399176 -43.8548 -8.11303 111.491 71.6056 -131.35 -1.04915 0.189708 3.57361 92.4649 39.6301 63.1282 1.05754 -28.3963 6.79876 -157.529 69.5075 165.657 1.10399 10.9926 -2.77992 
4.49351 94.178 160.447 -170.559 -22.2965 68.8746 7.34098 2.19672 0.977739 3.0404 -1.19187 0.394716 3.03535 -1.1898 0.438679 1.00528 -13.6237 -1.67674 -4.97751 -23.3538 -14.4533 -99.6459 19.8518 96.6118 -23.1043 -63.873 -82.3886 43.9719 0.704081 -0.711855 82.9042 -50.5798 78.9689 91.5705 11.3355 -93.4761 -43.3933 -39.337 40.2201 -54.75 0.776263 0.917961 -87.6214 -40.1697 -120.279 -176.257 18.4368 -8.59298 -0.866606 -38.7327 -9.02422 102.826 77.7423 -118.639 -1.05005 -1.10475 3.70609 74.7608 42.9473 79.4995 1.07827 -30.075 2.71124 -162.636 62.0293 171.887 1.08265 11.9656 -2.67748 
2.18323 95.7256 169.094 -171.953 -33.1949 61.9143 8.97177 3.22023 1.50305 4.9234 -0.823634 0.72377 4.91359 -0.819039 0.791475 1.55161 -13.1184 -1.78383 -4.00658 -22.45 -14.2123 -98.8359 20.1929 96.4999 -14.8409 -78.8501 -69.2761 19.2892 0.33255 -0.495475 91.3441 -52.4967 71.4971 91.5664 16.2076 -93.7221 -38.0165 -38.827 39.7991 -56.1214 0.789301 0.938232 -85.3688 -46.6048 -122.217 174.334 18.0779 -5.14018 -1.19204 -38.5658 -7.05456 102.618 82.2361 -115.921 -1.03293 3.8766 3.19383 57.2838 43.7486 96.1942 1.11032 -32.7607 -1.1371 -162.933 60.2516 173.692 1.11482 10.5958 -2.82766 
0.408257 96.2788 180.073 -174.875 -45.8563 54.0687 10.2116 4.25639 1.73542 6.48581 0.0663215 0.865558 6.4734 0.0730405 0.948029 2.7914 -12.1898 -2.01479 -2.67853 -21.4068 -14.3753 -94.8181 22.1585 96.106 56.6735 -88.067 13.1742 1.84297 -0.00566785 -0.463439 78.4114 -58.2242 42.7158 91.629 19.8617 -94.0406 -30.483 -35.0512 42.4552 -60.4312 0.821961 0.998774 -82.581 -54.0635 -124.38 169.167 22.1642 -2.9208 -0.92509 -41.3717 -0.449812 105.415 82.1818 -119.077 -1.01371 5.62573 3.0144 47.2013 43.4159 107.273 1.17648 -34.2438 -2.27286 -159.919 64.1686 171.483 1.0834 11.7073 -2.87454 
-0.390194 94.2214 192.309 -179.481 -59.4599 45.3121 11.0351 5.22454 1.70432 7.20837 1.05205 0.845236 7.19537 1.05981 0.929572 3.81978 -10.9597 -2.34307 -0.922655 -19.5229 -14.8573 -89.7838 24.292 95.3251 -11.0193 -86.8025 -39.7145 8.5692 0.145531 -0.46405 36.9106 -58.1571 7.13586 91.1794 21.7996 -94.3127 -24.2503 -28.7821 45.082 -64.7722 0.866568 1.0732 -84.4806 -62.1607 -130.114 168.042 27.8777 -1.98128 -0.636637 -43.8927 -0.153283 111.718 81.4094 -127.33 -1.0363 3.34401 3.24918 46.0685 49.3165 112.574 1.44024 -36.8756 -0.962636 -166.965 57.5323 162.725 1.05241 13.4333 -2.62045 
